<svg width="48" height="48" viewBox="0 0 48 48" fill="none" xmlns="http://www.w3.org/2000/svg">
<path d="M48 24C48 37.2548 37.2548 48 24 48C10.7452 48 0 37.2548 0 24C0 10.7452 10.7452 0 24 0C37.2548 0 48 10.7452 48 24Z" fill="#FF7D1C"/>
<path d="M38.8788 29.7307L30.1521 29.5393C29.5161 29.5251 29.0118 28.9986 29.026 28.3626L29.1116 24.4363C29.171 21.7579 27.1107 19.4557 24.4359 19.3371C21.6847 19.2144 19.377 21.3865 19.3172 24.1239L19.2284 28.1478C19.2142 28.7838 18.6879 29.2881 18.0518 29.2739L9.32496 29.0825C8.68895 29.0683 8.18467 28.5418 8.19885 27.9058L8.28305 24.0706C8.4797 15.1329 15.9162 7.95982 24.8503 8.31467C33.4971 8.65856 40.3312 15.8953 40.1411 24.5823L40.0523 28.6061C40.0381 29.2421 39.5117 29.7464 38.8757 29.7322L38.8789 29.7323L38.8788 29.7307Z" fill="white"/>
<path d="M23.5167 41.7157C20.8126 41.5908 18.7217 39.2975 18.8465 36.5934C18.9713 33.8893 21.2646 31.7984 23.9687 31.9233C26.6728 32.0481 28.7637 34.3414 28.6389 37.0455C28.5141 39.7496 26.2207 41.8405 23.5167 41.7157Z" fill="#B9D613"/>
</svg>
