<svg width="32" height="32" viewBox="0 0 32 32" fill="none" xmlns="http://www.w3.org/2000/svg">
<path d="M32 16C32 24.8366 24.8366 32 16 32C7.16344 32 0 24.8366 0 16C0 7.16344 7.16344 0 16 0C24.8366 0 32 7.16344 32 16Z" fill="#FF7D1C"/>
<path d="M7.2 29.3648C7.82611 23.224 10.3023 13.3309 16.3227 13.3309C19.6949 13.3309 22.4608 18.0558 23.7776 22.0078L26.5245 20.4181C25.0942 15.1229 21.1972 7.68 16.312 7.68C9.54591 7.68 5.15681 13.4356 3.97948 26.56C3.97948 26.56 4.16 26.8155 5.23812 27.84C6.08 28.64 7.2 29.3648 7.2 29.3648Z" fill="white"/>
<path d="M16.2556 15.7595C15.0991 15.7595 14.1605 16.6986 14.1605 17.8562C14.1605 19.0154 15.0991 19.9539 16.2556 19.9539C17.4118 19.9539 18.3497 19.0154 18.3497 17.8562C18.3497 16.6986 17.4117 15.7595 16.2556 15.7595Z" fill="white"/>
</svg>
