<svg width="96" height="48" viewBox="0 0 96 48" fill="none" xmlns="http://www.w3.org/2000/svg">
<g clip-path="url(#clip0_620_3739)">
<path d="M87.4253 31.8081H27.193C22.8785 31.8081 19.3809 35.3114 19.3809 39.6329V40.0994C19.3809 44.4209 22.8785 47.9241 27.193 47.9241H87.4253C91.7399 47.9241 95.2377 44.4209 95.2377 40.0994V39.6329C95.2377 35.3114 91.7399 31.8081 87.4253 31.8081Z" fill="#00BFFF"/>
<path d="M49.5636 0.0216669C34.2306 0.599814 21.681 13.0474 20.9387 28.4323C20.7841 31.6567 21.1398 34.7764 21.9285 37.7137C23.5677 43.8054 29.1273 48 35.4175 48H74.4465C78.2544 42.9751 80.5162 36.7126 80.5162 29.9145C80.5162 13.0125 66.5478 -0.618561 49.5636 0.0216669Z" fill="#00BFFF"/>
<path d="M16.8482 19.9596C7.83449 20.2947 0.457188 27.5099 0.0208222 36.4278C-0.0700873 38.2969 0.139004 40.1052 0.602644 41.8076C1.56628 45.3387 4.83449 47.7701 8.53223 47.7701H31.4755C33.7141 44.8576 35.0437 41.2274 35.0437 37.287C35.0437 27.4897 26.8323 19.5885 16.8482 19.9596Z" fill="#00BFFF"/>
</g>
<defs>
<clipPath id="clip0_620_3739">
<rect width="95.6129" height="48" fill="white"/>
</clipPath>
</defs>
</svg>
