<svg width="287" height="320" viewBox="0 0 287 320" fill="none" xmlns="http://www.w3.org/2000/svg">
<g clip-path="url(#clip0_452_5020)">
<path d="M284.913 243.368C289.284 257.8 283.74 273.944 270.379 282.41L219.574 314.622C209.499 321.006 196.842 321.716 186.122 316.512C175.402 311.307 168.124 300.933 166.89 289.072L158.875 211.351L134.34 251.162C126.494 263.876 111.36 270.096 96.8521 266.541C82.343 262.986 71.7784 250.489 70.707 235.568L63.479 135.289L63.4116 135.413C52.6646 151.108 31.236 155.116 15.5408 144.369C-0.128483 133.659 -4.13632 112.23 6.59302 96.5251L62.3416 15.0941C70.6018 3.01708 85.6133 -2.51092 99.7241 1.31208C113.853 5.14408 124.026 17.4751 125.072 32.0611L131.713 124.208L153.422 88.9811C161.155 76.4351 176.027 70.1881 190.399 73.4861C204.772 76.7831 215.46 88.8421 216.964 103.514L229.68 226.69L233.521 224.264C249.579 214.086 270.859 218.846 281.036 234.904C282.749 237.6 284.031 240.455 284.913 243.368Z" fill="#FFCE00"/>
</g>
<defs>
<clipPath id="clip0_452_5020">
<rect width="287" height="320" fill="white"/>
</clipPath>
</defs>
</svg>
