<svg width="48" height="49" viewBox="0 0 48 49" fill="none" xmlns="http://www.w3.org/2000/svg">
<path d="M22.1864 1.28965C22.7841 -0.429823 25.2159 -0.429826 25.8136 1.28965L30.1445 13.7493C30.4082 14.5078 31.1161 15.0221 31.919 15.0385L45.1071 15.3072C46.9272 15.3443 47.6786 17.6571 46.228 18.7568L35.7165 26.7261C35.0766 27.2112 34.8062 28.0434 35.0387 28.8121L38.8585 41.4378C39.3856 43.1802 37.4183 44.6095 35.9241 43.5698L25.0967 36.0354C24.4375 35.5767 23.5625 35.5767 22.9033 36.0354L12.0759 43.5698C10.5817 44.6095 8.61437 43.1802 9.14151 41.4378L12.9613 28.8121C13.1938 28.0434 12.9234 27.2112 12.2835 26.7261L1.77203 18.7569C0.321404 17.6571 1.07285 15.3443 2.89287 15.3072L16.081 15.0385C16.8839 15.0221 17.5918 14.5078 17.8555 13.7493L22.1864 1.28965Z" fill="#FFCE00"/>
</svg>
