<svg width="55" height="48" viewBox="0 0 55 48" fill="none" xmlns="http://www.w3.org/2000/svg">
<g clip-path="url(#clip0_126_657)">
<path d="M6.30313 47.544C6.30313 30.3097 6.3938 18.6905 19.2877 8.39771" stroke="#FFE14F" stroke-width="11.638" stroke-miterlimit="10"/>
<path d="M19.288 16.7955C23.9724 16.7955 27.7698 13.0357 27.7698 8.39777C27.7698 3.75981 23.9724 0 19.288 0C14.6036 0 10.8062 3.75981 10.8062 8.39777C10.8062 13.0357 14.6036 16.7955 19.288 16.7955Z" fill="#FF6700"/>
<path d="M7.54216 31.626H54.3026V46.2473C54.3026 46.5726 54.1722 46.8846 53.94 47.1147C53.7077 47.3448 53.3926 47.474 53.0639 47.474H7.54216C7.21353 47.474 6.89838 47.3448 6.66604 47.1147C6.43365 46.8846 6.30313 46.5726 6.30313 46.2473V32.8527C6.30313 32.5274 6.43365 32.2154 6.66604 31.9853C6.89838 31.7552 7.21353 31.626 7.54216 31.626Z" fill="#FFB700"/>
<path d="M23.5491 15.8177H54.3031V31.6558H22.3101V17.0445C22.3101 16.7192 22.4406 16.4071 22.673 16.1771C22.9054 15.947 23.2205 15.8177 23.5491 15.8177Z" fill="#FFB700"/>
<path d="M39.5453 6.70044e-10H53.0639C53.3926 6.70044e-10 53.7077 0.129247 53.94 0.359307C54.1722 0.589367 54.3026 0.901396 54.3026 1.22675V15.848H38.3062V1.23673C38.3049 1.07479 38.336 0.914191 38.3977 0.764204C38.4594 0.614216 38.5504 0.477799 38.6656 0.362826C38.7808 0.247853 38.9178 0.156598 39.0688 0.0943258C39.2198 0.0320529 39.3817 -5.35147e-06 39.5453 6.70044e-10Z" fill="#FFB700"/>
</g>
<defs>
<clipPath id="clip0_126_657">
<rect width="54.303" height="48" fill="white"/>
</clipPath>
</defs>
</svg>
