<svg width="47" height="48" viewBox="0 0 47 48" fill="none" xmlns="http://www.w3.org/2000/svg">
<g clip-path="url(#clip0_126_654)">
<path d="M30.7427 28.2345H1.64113C0.535366 28.2345 -0.253744 27.1614 0.077984 26.1059L7.90877 1.21128C8.12238 0.530229 8.75568 0.0653076 9.47191 0.0653076H38.5735C39.6792 0.0653076 40.4683 1.1384 40.1366 2.19389L32.3083 27.0886C32.0947 27.7696 31.4614 28.2345 30.7452 28.2345H30.7427Z" fill="#00A4FF"/>
<path d="M14.4855 47.814C13.5431 47.814 12.852 46.9294 13.0782 46.0147L20.4893 16.1717C20.6351 15.5887 21.1578 15.1791 21.7584 15.1791H45.394C46.5676 15.1791 47.1456 16.604 46.3063 17.4233L15.5008 47.4044C15.2294 47.6683 14.8675 47.814 14.4906 47.814H14.4855Z" fill="#00A4FF"/>
</g>
<defs>
<clipPath id="clip0_126_654">
<rect width="46.7435" height="48" fill="white"/>
</clipPath>
</defs>
</svg>
